<?xml version="1.0" encoding="iso-8859-1"?>
<!-- Uploaded to: SVG Repo, www.svgrepo.com, Generator: SVG Repo Mixer Tools -->
<svg fill="#000000" height="800px" width="800px" version="1.1" id="Layer_1" xmlns="http://www.w3.org/2000/svg" xmlns:xlink="http://www.w3.org/1999/xlink" 
	 viewBox="0 0 503.607 503.607" xml:space="preserve">
<g transform="translate(1 1)">
	<g>
		<g>
			<path d="M250.803-1C112.311-1-1,111.472-1,250.803s113.311,251.803,251.803,251.803s251.803-113.311,251.803-251.803
				S389.295-1,250.803-1z M250.803,485.82c-129.259,0-235.016-105.757-235.016-235.016S121.544,15.787,250.803,15.787
				S485.82,121.544,485.82,250.803S380.062,485.82,250.803,485.82z"/>
			<path d="M250.803,32.574c-120.026,0-218.229,98.203-218.229,218.229c0,120.866,98.203,218.23,218.229,218.23
				s218.23-97.364,218.23-218.23C469.033,130.777,370.829,32.574,250.803,32.574z M452.057,242.41h-84.05
				c-4.143-57.978-50.832-104.667-108.81-108.81V49.55C363.351,53.875,447.731,138.255,452.057,242.41z M326.344,259.197h24.825
				c-4.07,48.739-43.233,87.902-91.972,91.972v-24.825c0-5.036-3.357-8.393-8.393-8.393s-8.393,3.357-8.393,8.393v24.825
				c-48.739-4.07-87.902-43.233-91.972-91.972h24.825c5.036,0,8.393-3.357,8.393-8.393s-3.357-8.393-8.393-8.393h-24.825
				c4.07-48.739,43.233-87.902,91.972-91.972v24.825c0,5.036,3.357,8.393,8.393,8.393s8.393-3.357,8.393-8.393v-24.825
				c48.739,4.07,87.902,43.233,91.972,91.972h-24.825c-5.036,0-8.393,3.357-8.393,8.393S321.308,259.197,326.344,259.197z
				 M242.41,49.55v84.05c-57.978,4.143-104.667,50.832-108.81,108.81H49.55C53.875,138.255,138.255,53.875,242.41,49.55z
				 M49.55,259.197h84.05c4.143,57.978,50.832,104.667,108.81,108.81v84.05C138.255,447.731,53.875,363.351,49.55,259.197z
				 M259.197,452.057v-84.05c57.978-4.143,104.667-50.832,108.81-108.81h84.05C447.731,363.351,363.351,447.731,259.197,452.057z"/>
			<path d="M284.377,242.41h-25.18v-25.18c0-5.036-3.357-8.393-8.393-8.393s-8.393,3.357-8.393,8.393v25.18h-25.18
				c-5.036,0-8.393,3.357-8.393,8.393s3.357,8.393,8.393,8.393h25.18v25.18c0,5.036,3.357,8.393,8.393,8.393
				s8.393-3.357,8.393-8.393v-25.18h25.18c5.036,0,8.393-3.357,8.393-8.393S289.413,242.41,284.377,242.41z"/>
		</g>
	</g>
</g>
</svg>